HIERARCHY
ROOT Hips
{
    OFFSET 0.000000 0.000000 0.000000
    CHANNELS 6 Xposition Yposition Zposition Zrotation Xrotation Yrotation
    JOINT Spine
    {
        OFFSET -0.000000 14.517291 0.000000
        CHANNELS 3 Zrotation Xrotation Yrotation
        JOINT Spine1
        {
            OFFSET -0.000000 37.558300 0.000000
            CHANNELS 3 Zrotation Xrotation Yrotation
            JOINT Neck
            {
                OFFSET -0.000000 37.404057 3.400369
                CHANNELS 3 Zrotation Xrotation Yrotation
                JOINT Head
                {
                    OFFSET -0.000000 24.785618 -3.540803
                    CHANNELS 3 Zrotation Xrotation Yrotation
                    End Site
                    {
                        OFFSET -0.000000 35.408028 0.000000
                    }
                }
            }
            JOINT LeftShoulder
            {
                OFFSET 6.992933 33.973492 -0.192664
                CHANNELS 3 Zrotation Xrotation Yrotation
                JOINT LeftArm
                {
                    OFFSET 21.527611 0.000000 0.000000
                    CHANNELS 3 Zrotation Xrotation Yrotation
                    JOINT LeftForeArm
                    {
                        OFFSET 56.353916 0.000000 0.000000
                        CHANNELS 3 Zrotation Xrotation Yrotation
                        JOINT LeftHand
                        {
                            OFFSET 47.774071 0.000000 0.000000
                            CHANNELS 3 Zrotation Xrotation Yrotation
                            End Site
                            {
                                OFFSET 26.556021 0.000000 0.000000
                            }
                        }
                    }
                }
            }
            JOINT RightShoulder
            {
                OFFSET -7.065357 33.973492 -0.192664
                CHANNELS 3 Zrotation Xrotation Yrotation
                JOINT RightArm
                {
                    OFFSET -21.527611 0.000000 0.000000
                    CHANNELS 3 Zrotation Xrotation Yrotation
                    JOINT RightForeArm
                    {
                        OFFSET -56.353916 0.000000 0.000000
                        CHANNELS 3 Zrotation Xrotation Yrotation
                        JOINT RightHand
                        {
                            OFFSET -47.774071 0.000000 0.000000
                            CHANNELS 3 Zrotation Xrotation Yrotation
                            End Site
                            {
                                OFFSET -26.556021 0.000000 0.000000
                            }
                        }
                    }
                }
            }
        }
    }
    JOINT LeftUpLeg
    {
        OFFSET 17.704014 0.000000 0.000000
        CHANNELS 3 Zrotation Xrotation Yrotation
        JOINT LeftLeg
        {
            OFFSET -0.000000 -81.181816 0.000000
            CHANNELS 3 Zrotation Xrotation Yrotation
            JOINT LeftFoot
            {
                OFFSET -0.000000 -62.821102 0.000000
                CHANNELS 3 Zrotation Xrotation Yrotation
                JOINT LeftToeBase
                {
                    OFFSET -0.000000 -11.507608 26.556021
                    CHANNELS 3 Zrotation Xrotation Yrotation
                    End Site
                    {
                        OFFSET -0.000000 0.000000 7.081605
                    }
                }
            }
        }
    }
    JOINT RightUpLeg
    {
        OFFSET -17.704014 0.000000 0.000000
        CHANNELS 3 Zrotation Xrotation Yrotation
        JOINT RightLeg
        {
            OFFSET -0.000000 -81.181816 0.000000
            CHANNELS 3 Zrotation Xrotation Yrotation
            JOINT RightFoot
            {
                OFFSET -0.000000 -62.821102 0.000000
                CHANNELS 3 Zrotation Xrotation Yrotation
                JOINT RightToeBase
                {
                    OFFSET -0.000000 -11.507608 26.556021
                    CHANNELS 3 Zrotation Xrotation Yrotation
                    End Site
                    {
                        OFFSET -0.000000 0.000000 7.081605
                    }
                }
            }
        }
    }
}
MOTION
Frames:    11
Frame Time:    0.008333
25.455893    156.894821    63.269772    7.054615    1.555673    -66.536392    1.286585    0.161413    1.106820    0.217303    1.517129    0.366315    14.605430    1.980850    9.793392    -9.868457    2.003925    7.039814    10.720869    2.914047    -14.682365    -11.133711    -2.428119    -19.543016    13.378746    -1.131584    -49.631832    -1.227946    5.562160    -42.913757    -10.743403    -0.543594    -5.293609    28.774059    -22.467537    40.402939    6.527025    -20.347601    106.240623    13.167180    -25.185232    29.478779    23.790287    -23.612848    10.670871    -19.703791    27.772657    -5.429428    -7.306475    -8.225741    48.839779    0.000000    0.000000    0.000000    -24.203840    -11.698448    -4.226106    3.005885    17.182989    -3.729179    8.097464    -14.643609    -4.545005    0.000000    0.000000    0.000000    
25.484886    156.880875    63.273739    7.102626    1.541250    -66.782959    1.266975    0.135133    1.139979    0.182658    1.519179    0.377705    14.645576    1.999385    9.826697    -9.885663    1.996299    7.068860    10.717921    2.915354    -14.664330    -11.118744    -2.440091    -19.531137    13.438138    -1.135005    -49.600510    -1.257397    5.593441    -42.900898    -10.718904    -0.519006    -5.288943    28.786674    -22.513390    40.380676    6.543779    -20.289568    106.214149    13.144808    -25.150829    29.480953    23.845602    -23.573420    10.842029    -19.719837    27.830629    -5.407291    -7.275326    -8.280094    48.896000    0.000000    0.000000    0.000000    -24.333990    -11.793001    -4.916721    2.981637    17.138868    -3.967691    8.105241    -14.436411    -4.533602    0.000000    0.000000    0.000000    
25.521616    156.863464    63.263084    7.160623    1.531145    -67.046730    1.238788    0.109351    1.184609    0.154077    1.514059    0.392823    14.677052    2.023076    9.863331    -9.888447    1.975639    7.103954    10.730485    2.915082    -14.639726    -11.128108    -2.467852    -19.521774    13.458162    -1.149951    -49.585735    -1.135476    5.539870    -43.056400    -10.709663    -0.498885    -5.277427    28.788120    -22.467016    40.360233    6.458176    -20.396013    106.168602    13.086087    -25.162191    29.437799    23.911875    -23.540913    11.021497    -19.742496    27.883448    -5.332111    -7.256245    -8.335164    48.919937    0.000000    0.000000    0.000000    -24.450903    -11.919844    -5.633686    2.942885    17.105219    -4.096146    8.146089    -14.237429    -4.475010    0.000000    0.000000    0.000000    
25.556744    156.838654    63.251007    7.204265    1.519449    -67.301880    1.205585    0.099379    1.222531    0.149762    1.505016    0.405512    14.688844    2.034737    9.913744    -9.877930    1.977874    7.158074    10.709542    2.896713    -14.626722    -11.129051    -2.492259    -19.488001    13.379030    -1.202186    -49.607182    -1.190800    5.474680    -42.970024    -10.707210    -0.459207    -5.280689    28.814430    -22.512569    40.355957    6.484684    -20.367245    106.153389    13.067859    -25.170483    29.424219    23.984955    -23.506628    11.153618    -19.798647    27.937901    -5.223545    -7.216481    -8.389086    48.965099    0.000000    0.000000    0.000000    -24.570442    -12.024099    -6.266371    2.976145    17.038401    -4.294487    8.140162    -14.032486    -4.436300    0.000000    0.000000    0.000000    
25.577688    156.812866    63.233681    7.223288    1.517579    -67.537186    1.200067    0.091685    1.241548    0.133602    1.519406    0.411992    14.707330    2.050880    9.957585    -9.890416    1.968393    7.201143    10.692725    2.892265    -14.598401    -11.130629    -2.475573    -19.451834    13.403146    -1.286477    -49.648586    -1.183450    5.405154    -42.968102    -10.711087    -0.449596    -5.280615    28.843351    -22.506960    40.367828    6.490305    -20.376585    106.132072    13.102575    -25.175327    29.419800    24.074446    -23.461830    11.252707    -19.871370    27.992697    -5.083418    -7.171743    -8.441448    48.993000    0.000000    0.000000    0.000000    -24.659948    -12.107260    -6.888249    3.082659    16.993261    -4.722396    8.027061    -13.857434    -4.291239    0.000000    0.000000    0.000000    
25.587019    156.787445    63.212467    7.227056    1.523050    -67.755600    1.198134    0.090075    1.247602    0.140458    1.532694    0.413833    14.722033    2.090343    10.006359    -9.926852    1.935057    7.247926    10.653273    2.899554    -14.560812    -11.129120    -2.485486    -19.424114    13.455165    -1.322698    -49.670654    -1.217696    5.409391    -42.913589    -10.727290    -0.438281    -5.269461    28.849842    -22.508802    40.351627    6.483833    -20.381132    106.109734    13.102354    -25.165173    29.453106    24.172009    -23.413267    11.320813    -19.953964    28.044544    -4.943816    -7.123587    -8.490832    49.037621    0.000000    0.000000    0.000000    -24.729174    -12.180831    -7.492402    3.074496    16.989347    -4.778424    8.073427    -13.767863    -4.260843    0.000000    0.000000    0.000000    
25.593285    156.763580    63.184708    7.225477    1.542987    -67.973618    1.222665    0.081789    1.252551    0.132214    1.560063    0.415566    14.725698    2.144380    10.056875    -9.950377    1.864684    7.298342    10.623454    2.916230    -14.508186    -11.136607    -2.484231    -19.414316    13.444635    -1.421386    -49.687218    -1.148359    5.282709    -43.021805    -10.742304    -0.450689    -5.241354    28.844517    -22.489202    40.326321    6.465509    -20.413403    106.099434    13.071152    -25.179523    29.460316    24.290514    -23.366045    11.398048    -20.039293    28.102339    -4.783638    -7.074292    -8.536971    49.056599    0.000000    0.000000    0.000000    -24.771482    -12.266535    -8.043575    3.070443    17.024696    -4.816334    8.091182    -13.661222    -4.442585    0.000000    0.000000    0.000000    
25.605274    156.737595    63.153370    7.229255    1.559840    -68.190880    1.237612    0.080142    1.260043    0.129361    1.572678    0.418166    14.738397    2.195867    10.103745    -9.980203    1.810085    7.343978    10.596309    2.940874    -14.457835    -11.150358    -2.485137    -19.403114    13.579455    -1.425925    -49.722725    -1.040794    5.304203    -43.016136    -10.753360    -0.463854    -5.202847    28.821508    -22.492554    40.272903    6.465765    -20.415894    106.075401    13.104118    -25.171713    29.452759    24.406855    -23.327843    11.500258    -20.109325    28.173838    -4.657977    -7.040197    -8.584325    49.086243    0.000000    0.000000    0.000000    -24.830271    -12.357129    -8.556680    3.089095    17.057148    -4.903011    8.075399    -13.570209    -4.632214    0.000000    0.000000    0.000000    
25.618696    156.714462    63.116699    7.228201    1.588149    -68.405296    1.263988    0.089119    1.275058    0.128040    1.568907    0.423158    14.766354    2.256929    10.155039    -10.037763    1.757823    7.390165    10.581264    2.977232    -14.415208    -11.183086    -2.551882    -19.409288    13.667531    -1.397259    -49.731884    -0.983473    5.353644    -43.085938    -10.769654    -0.450914    -5.181791    28.822317    -22.534714    40.250305    6.493953    -20.367430    106.061195    13.110069    -25.155312    29.455706    24.530214    -23.294134    11.597733    -20.165199    28.250299    -4.553123    -7.018846    -8.650542    49.135155    0.000000    0.000000    0.000000    -24.867849    -12.462409    -9.023932    3.102768    17.114559    -4.993292    8.058282    -13.469097    -4.881498    0.000000    0.000000    0.000000    
25.626120    156.689362    63.084209    7.226264    1.603198    -68.604225    1.292005    0.091183    1.281160    0.108164    1.584515    0.425469    14.770796    2.293851    10.208575    -10.051986    1.721258    7.445417    10.548355    2.973681    -14.380731    -11.202136    -2.594722    -19.376070    13.621366    -1.423005    -49.794636    -1.006238    5.323863    -43.030697    -10.781545    -0.442237    -5.165629    28.790981    -22.485100    40.225811    6.394189    -20.493052    106.023155    13.160498    -25.136383    29.471611    24.638737    -23.248650    11.661695    -20.244688    28.296339    -4.432241    -6.949199    -8.660482    49.170265    0.000000    0.000000    0.000000    -24.933912    -12.547278    -9.542863    3.138474    17.176874    -5.093453    7.976195    -13.352823    -5.145275    0.000000    0.000000    0.000000    
25.631008    156.669235    63.053806    7.227979    1.612492    -68.796051    1.321005    0.101376    1.281724    0.079835    1.583087    0.426157    14.754009    2.331933    10.264807    -10.030942    1.689428    7.511324    10.524632    2.971813    -14.351433    -11.233883    -2.669815    -19.338587    13.595720    -1.400770    -49.881458    -0.932676    5.318309    -43.104179    -10.804119    -0.426458    -5.152433    28.796261    -22.522423    40.216980    6.426003    -20.449360    106.024673    13.098004    -25.152691    29.431124    24.727119    -23.209333    11.707628    -20.299990    28.346607    -4.344427    -6.931709    -8.711556    49.238449    0.000000    0.000000    0.000000    -25.004921    -12.623381    -10.036019    3.165311    17.220081    -5.297859    7.949589    -13.225512    -5.263180    0.000000    0.000000    0.000000    
